<svg width="30" height="30" viewBox="0 0 30 30" fill="none" xmlns="http://www.w3.org/2000/svg">
<g id="Arrow-right-red">
<path id="Shape" fill-rule="evenodd" clip-rule="evenodd" d="M0 14.9999C0 6.71565 6.71565 0 14.9999 0C23.2805 0.00933832 29.9907 6.71949 30 14.9999C30 23.2841 23.2841 30 14.9999 30C6.71565 30 0 23.2841 0 14.9999ZM1.4999 14.9999C1.4999 22.4557 7.54401 28.4998 14.9999 28.4998C22.4521 28.4913 28.4913 22.4521 28.4998 14.9999C28.4998 7.54401 22.4557 1.4999 14.9999 1.4999C7.54401 1.4999 1.4999 7.54401 1.4999 14.9999Z" fill="#DF0D25"/>
<path id="Path" d="M13.0245 9.27357C12.722 9.00497 12.2625 9.03634 11.9981 9.34335C11.7339 9.65063 11.7648 10.1172 12.067 10.3858L17.2595 14.9999L12.0668 19.6143C11.7642 19.8829 11.7336 20.3495 11.9978 20.6565C12.2623 20.9637 12.7217 20.9951 13.0243 20.7265L18.8424 15.556C19.0003 15.4159 19.0908 15.2131 19.0908 14.9999C19.0908 14.7868 19.0003 14.5842 18.8424 14.4438L13.0245 9.27357Z" fill="#DF0D25"/>
</g>
</svg>
