<svg width="45" height="45" viewBox="0 0 45 45" fill="none" xmlns="http://www.w3.org/2000/svg">
<g id="Web-icon">
<path id="Path" d="M44.0592 5.62783C44.577 5.62783 44.9967 5.20809 44.9967 4.69036C45.0912 2.19621 43.1458 0.0977054 40.6516 0.00322975C40.5376 -0.00107658 40.4236 -0.00107658 40.3096 0.00322975H4.68713C2.09982 0.0063057 0.00307595 2.10305 0 4.69045V40.3129C0.00307595 42.9003 2.09982 44.9969 4.68713 45H40.3095C42.8969 44.9969 44.9935 42.9002 44.9966 40.3129V8.44012C44.9966 7.9224 44.5769 7.50266 44.0592 7.50266H5.62459C5.10686 7.50266 4.68713 7.9224 4.68713 8.44012C4.68713 8.95785 5.10686 9.37759 5.62459 9.37759H43.1219V40.3129C43.1219 41.866 41.8628 43.1252 40.3096 43.1252H4.68713C3.13395 43.1252 1.87483 41.866 1.87483 40.3129V4.69045C1.87483 3.13727 3.13395 1.87815 4.68713 1.87815H40.3039C41.7793 1.79739 43.0407 2.92802 43.1215 4.40342C43.1268 4.49904 43.1269 4.59483 43.1218 4.69045C43.1219 5.20818 43.5415 5.62783 44.0592 5.62783Z" fill="#00D879"/>
<path id="Path_2" d="M7.99998 4H6.00002C5.44775 4 5 4.44774 5 5C5 5.55226 5.44775 6 6.00002 6H7.99998C8.55225 5.99991 9 5.55226 9 5C9 4.44774 8.55225 4 7.99998 4Z" fill="#00D879"/>
<path id="Path_3" d="M14 4H12C11.4477 4 11 4.44774 11 5C11 5.55226 11.4477 6 12 6H14C14.5523 6 15 5.55226 15 5C15 4.44774 14.5523 4 14 4Z" fill="#00D879"/>
<path id="Path_4" d="M41 4H39C38.4477 4 38 4.44774 38 5C38 5.55226 38.4477 6 39 6H41C41.5523 6 42 5.55226 42 5C41.9999 4.44774 41.5523 4 41 4Z" fill="#00D879"/>
<path id="Path_5" d="M37.158 12H19.1579C18.6347 12 18.2105 12.4179 18.2105 12.9334C18.2105 13.4488 18.6347 13.8667 19.1579 13.8667H37.158C37.6812 13.8667 38.1054 14.2846 38.1054 14.8001V37.2001C38.1054 37.7155 37.6812 38.1334 37.158 38.1334H6.84211C6.31889 38.1334 5.89471 37.7155 5.89471 37.2001V14.8001C5.89471 14.2846 6.31889 13.8667 6.84211 13.8667H13.4737V34.4001C13.4737 34.9156 13.8979 35.3335 14.4211 35.3335C14.9443 35.3335 15.3685 34.9156 15.3685 34.4001V12.9334C15.3685 12.4179 14.9443 12 14.4211 12H6.84211C5.27246 12 4 13.2536 4 14.8V37.2C4 38.7464 5.27246 40 6.84211 40H37.1579C38.7275 40 40 38.7464 40 37.2V14.8C40.0001 13.2536 38.7276 12 37.158 12Z" fill="#00D879"/>
<path id="Path_6" d="M11 18H9.00002C8.44775 18 8 18.4477 8 19C8 19.5523 8.44775 20 9.00002 20H11C11.5523 20 12 19.5523 12 19C12 18.4477 11.5523 18 11 18Z" fill="#00D879"/>
<path id="Path_7" d="M11 22H9.00002C8.44775 22 8 22.4477 8 23C8 23.5523 8.44775 24 9.00002 24H11C11.5523 24 12 23.5523 12 23C12 22.4477 11.5523 22 11 22Z" fill="#00D879"/>
<path id="Path_8" d="M11 27H9.00002C8.44775 27 8 27.4477 8 28C8 28.5523 8.44775 29 9.00002 29H11C11.5523 29 12 28.5523 12 28C12 27.4477 11.5523 27 11 27Z" fill="#00D879"/>
<path id="Path_9" d="M11 32H9.00002C8.44775 32 8 32.4477 8 33C8 33.5523 8.44775 34 9.00002 34H11C11.5523 34 12 33.5523 12 33C12 32.4477 11.5523 32 11 32Z" fill="#00D879"/>
<path id="Path_10" d="M21.414 26.5054L24.7072 23.538C25.0976 23.1862 25.0976 22.6158 24.7072 22.2638C24.3167 21.9121 23.6837 21.9121 23.2931 22.2638L19.2928 25.8683C18.9024 26.2202 18.9024 26.7906 19.2928 27.1426L23.2931 30.7471C23.6903 31.0928 24.3235 31.0829 24.7072 30.7249C25.0815 30.3757 25.0815 29.8221 24.7072 29.4729L21.414 26.5054Z" fill="#00D879"/>
<path id="Path_11" d="M34.7072 25.8575L30.7069 22.2529C30.3097 21.9072 29.6765 21.9171 29.2928 22.2751C28.9185 22.6243 28.9185 23.1779 29.2928 23.5271L32.586 26.4945L29.2928 29.4619C28.9024 29.8138 28.9024 30.3842 29.2928 30.7362C29.6833 31.0879 30.3163 31.0879 30.7069 30.7362L34.7072 27.1316C35.0976 26.7798 35.0976 26.2094 34.7072 25.8575Z" fill="#00D879"/>
</g>
</svg>
