<svg width="45" height="45" viewBox="0 0 45 45" fill="none" xmlns="http://www.w3.org/2000/svg">
<g id="Web-design-icon">
<path id="Path" d="M40 0H36C35.4477 0 35 0.429092 35 0.95836C35 1.48763 35.4477 1.91672 36 1.91672H40C41.6568 1.91672 43 3.20391 43 4.79171V22.0416C43 22.5709 43.4477 23 44 23C44.5523 23 45 22.5709 45 22.0416V4.79171C44.9966 2.14663 42.76 0.00323436 40 0Z" fill="#DF0D25"/>
<path id="Shape" fill-rule="evenodd" clip-rule="evenodd" d="M44.0627 25.314H34.6877V4.69065C34.6892 4.54564 34.6572 4.40212 34.5939 4.27162L32.7189 0.521873C32.4426 0.0584613 31.843 -0.0931384 31.3795 0.183081C31.2402 0.266131 31.1238 0.382577 31.0407 0.521873L29.1657 4.27162C29.0992 4.40142 29.064 4.54485 29.0626 4.69065V5.62802C29.0626 6.14574 29.4824 6.56547 30.0002 6.56547C30.5179 6.56547 30.9377 6.14574 30.9377 5.62802V4.91185L31.8752 3.03702L32.8128 4.91185V25.314H30.9376V18.752C30.9376 18.2343 30.5179 17.8145 30.0001 17.8145C29.4823 17.8145 29.0626 18.2343 29.0626 18.752V25.314H27.1876V16.8772H28.1251C28.6429 16.8772 29.0626 16.4574 29.0626 15.9397C29.0626 15.422 28.6429 15.0022 28.1251 15.0022H27.1876V14.0649C27.2634 12.7591 28.1215 11.6289 29.3588 11.2048C29.8505 11.0424 30.1173 10.5122 29.9548 10.0205C29.9403 9.9766 29.9225 9.93371 29.9016 9.89241L25.2142 0.518182C25.1746 0.440053 25.1227 0.368867 25.0604 0.307261C24.7233 -0.0711674 24.1431 -0.104651 23.7646 0.232471C23.7382 0.255936 23.7132 0.280895 23.6898 0.307261C23.6276 0.368867 23.5756 0.440053 23.5361 0.518182L18.8486 9.89249C18.619 10.36 18.812 10.9251 19.2796 11.1546C19.3144 11.1716 19.3502 11.1866 19.3867 11.1992C20.6273 11.6233 21.4875 12.7562 21.5626 14.065V15.0024H20.6251C20.1073 15.0024 19.6876 15.4221 19.6876 15.9399C19.6876 16.4576 20.1073 16.8773 20.6251 16.8773H21.5626V25.3142H19.6876V18.7522C19.6876 18.2344 19.2678 17.8147 18.75 17.8147C18.2323 17.8147 17.8125 18.2344 17.8125 18.7522V25.3142H12.1875V20.6271H15C15.5178 20.6271 15.9375 20.2073 15.9375 19.6896C15.9375 19.1719 15.5178 18.7522 15 18.7522H12.1875V15.9399H14.0625C14.5802 15.9399 15 15.5201 15 15.0024C15 14.4847 14.5802 14.065 14.0625 14.065H12.1875V11.2527H15C15.5178 11.2527 15.9375 10.8329 15.9375 10.3152C15.9375 9.79749 15.5178 9.37776 15 9.37776H12.1875V6.56547H14.0625C14.5802 6.56547 15 6.14574 15 5.62802C15 5.11029 14.5802 4.69056 14.0625 4.69056H12.1875V1.87827H17.8125V5.62802C17.8125 6.14574 18.2323 6.56547 18.75 6.56547C19.2678 6.56547 19.6876 6.14574 19.6876 5.62802V1.87836C19.6876 0.842913 18.8481 0.0035339 17.8126 0.0035339H12.1876C11.152 0.0035339 10.3126 0.842913 10.3126 1.87836V25.314H5.62502C5.10726 25.314 4.68749 25.7337 4.68749 26.2515C4.68749 26.7692 5.10726 27.1889 5.62502 27.1889H43.1252V30.9387C43.1252 32.4918 41.866 33.7509 40.3127 33.7509H4.68758C3.13428 33.7509 1.87507 32.4918 1.87507 30.9387V4.69065C1.87507 3.13747 3.13428 1.87836 4.68758 1.87836H7.50009C8.01785 1.87836 8.43762 1.45863 8.43762 0.940904C8.43762 0.42318 8.01785 0.00344601 7.50009 0.00344601H4.68758C2.09998 0.00660983 0.00316407 2.10326 0 4.69065V30.9386C0.00307618 33.526 2.09998 35.6226 4.68749 35.6257H15V39.8113L12.6047 41.4049C12.3431 41.5794 12.1865 41.8734 12.1875 42.1877V43.1252C12.1875 44.1606 13.0269 45 14.0625 45H30.9375C31.9731 45 32.8125 44.1606 32.8125 43.1252V42.1877C32.8125 41.8743 32.656 41.5817 32.3953 41.4077L30 39.8113V38.438C30 37.9202 29.5802 37.5005 29.0625 37.5005C28.5447 37.5005 28.1249 37.9202 28.1249 38.438V40.3128C28.1248 40.6262 28.2815 40.9188 28.5422 41.0928L30.9374 42.6892V43.1251H14.0624V42.6892L16.4577 41.0956C16.7192 40.9211 16.8759 40.6272 16.8749 40.3128V35.6257H40.3125C42.9001 35.6226 44.9969 33.5259 45 30.9386V26.2515C45.0002 25.7337 44.5805 25.314 44.0627 25.314ZM25.3126 25.314H23.4376V16.8772H25.3126V25.314ZM25.3126 15.0023V14.0649C25.3178 12.3229 26.2713 10.7219 27.8008 9.88775L25.3127 4.91185V9.37767C25.3127 9.89539 24.8929 10.3151 24.3752 10.3151C23.8574 10.3151 23.4376 9.89539 23.4376 9.37767V4.91176L20.9495 9.88766C22.4779 10.723 23.431 12.3233 23.4376 14.0649V15.0023H25.3126Z" fill="#DF0D25"/>
</g>
</svg>
