<svg width="45" height="45" viewBox="0 0 45 45" fill="none" xmlns="http://www.w3.org/2000/svg">
<g id="Planning-icon">
<path id="Path" d="M1 12L0 13.8263C0 14.4745 0.447736 15 1 15C1.55226 15 2 14.4745 2 13.8263L1 12Z" fill="#0071D8"/>
<path id="Shape" fill-rule="evenodd" clip-rule="evenodd" d="M30.0649 6.56252C30.5402 2.81636 33.724 0.00624022 37.5001 0C41.6402 0.00465819 44.9953 3.35979 45 7.50013V38.4376C45.0002 38.6089 44.9532 38.7768 44.864 38.9232C44.1784 42.4492 41.0921 44.996 37.5001 45H19.6878C19.1701 45 18.7503 44.5802 18.7503 44.0625C18.7503 43.5447 19.1701 43.1249 19.6878 43.1249H37.5002C40.6068 43.1249 43.1251 40.6065 43.1251 37.5C43.1251 34.3934 40.6068 31.875 37.5002 31.875C34.3937 31.875 31.8753 34.3934 31.8753 37.5C31.8753 38.0177 31.4556 38.4375 30.9378 38.4375C30.4201 38.4375 30.0003 38.0177 30.0003 37.5V8.43748H4.68822C4.59224 8.43239 4.49609 8.43247 4.40012 8.43775C2.92516 8.51852 1.79499 9.77975 1.87576 11.2547C1.8755 11.6559 1.61992 12.0124 1.24015 12.1416V12.137C1.14312 12.1711 1.04099 12.1882 0.93825 12.1876C0.836211 12.186 0.735138 12.1676 0.639163 12.1332C0.26247 12.0065 0.00662503 11.6559 0.000736451 11.2585V11.2501V11.1478C-0.000845555 11.0605 0.000121226 10.973 0.00363679 10.8857C0.103391 8.3982 2.20078 6.46267 4.68813 6.56252H30.0649ZM32.555 31.8645C35.6615 29.1334 40.3939 29.4378 43.125 32.5443V7.49996C43.125 4.39338 40.6066 1.87497 37.5001 1.87497C34.3935 1.87497 31.8752 4.39338 31.8752 7.49996V32.5443C32.087 32.3034 32.3141 32.0763 32.555 31.8645Z" fill="#0071D8"/>
<path id="Shape_2" fill-rule="evenodd" clip-rule="evenodd" d="M13.5 11C13.8335 11.0003 14.1348 11.2258 14.2659 11.5733C16 16.1746 16 16.4476 16 16.6667V43.1111C16 44.1543 15.2538 45 14.3334 45H12.6667C11.7462 45 11.0001 44.1543 11.0001 43.1111V38.389C11.0001 37.8674 11.3732 37.4445 11.8334 37.4445H14.3334V16.7716C14.2501 16.458 13.9117 15.5079 13.5001 14.3802C13.0884 15.5079 12.7501 16.4609 12.6667 16.7716V34.6111C12.6667 35.1327 12.2936 35.5556 11.8334 35.5556C11.3731 35.5556 11 35.1327 11 34.6111V16.6667C11 16.4476 11 16.1746 12.7341 11.5733C12.8652 11.2257 13.1665 11.0002 13.5 11ZM12.6667 43.1111H14.3334V39.3333H12.6667V43.1111Z" fill="#0071D8"/>
<path id="Shape_3" fill-rule="evenodd" clip-rule="evenodd" d="M2.00025 17H7.99977C9.10424 17 9.99958 17.8357 9.99958 18.8666V43.133C10.0001 43.1588 10.0001 43.1845 9.99958 43.2103C9.97671 44.2199 9.08137 45.0209 7.99977 44.9996H2.00025C1.9726 45.0001 1.94504 45.0001 1.91739 44.9996C0.835786 44.9782 -0.0224264 44.1425 0.000446793 43.133V18.8666C0.000446793 17.8357 0.895781 17 2.00025 17ZM2.00025 43.1068L7.99977 43.133V18.8664H2.00025V23.533H4.00006C4.5523 23.533 5.00001 23.9509 5.00001 24.4664C5.00001 24.9818 4.5523 25.3997 4.00006 25.3997H2.00025V30.0663H5.00001C5.55225 30.0663 5.99996 30.4842 5.99996 30.9997C5.99996 31.5151 5.55225 31.933 5.00001 31.933H2.00025V36.5996H4.00006C4.5523 36.5996 5.00001 37.0175 5.00001 37.5329C5.00001 38.0484 4.5523 38.4663 4.00006 38.4663H2.00025V43.1068Z" fill="#0071D8"/>
<path id="Path_2" d="M25 14H19C18.4477 14 18 14.4133 18 14.9231C18 15.4329 18.4477 15.8462 19 15.8462H25V19.5385H19C18.4477 19.5385 18 19.9518 18 20.4616V33.3847C18 33.8945 18.4477 34.3078 19 34.3078C19.5523 34.3078 20.0001 33.8945 20.0001 33.3847V21.3846H25V36.1538H19C18.4477 36.1538 18 36.5671 18 37.0769C18 37.5867 18.4477 38 19 38H25C26.1046 38 27 37.1735 27 36.1539V15.8461C27.0001 14.8265 26.1046 14 25 14Z" fill="#0071D8"/>
</g>
</svg>
